<svg width="120" height="120" viewBox="0 0 120 120" xmlns="http://www.w3.org/2000/svg">
  <title>Fruit Ring</title>
  <!-- Outer circle -->
  <circle cx="60" cy="60" r="50" fill="#FFD700" stroke="#FFA500" stroke-width="2"/>
  
  <!-- Inner circle (hole) -->
  <circle cx="60" cy="60" r="25" fill="white" stroke="#FFA500" stroke-width="2"/>
  
  <!-- Decorative fruit patterns -->
  <!-- Orange segments -->
  <path d="M60 10 Q80 20 85 35" stroke="#FF4500" stroke-width="3" fill="transparent"/>
  <path d="M85 35 Q90 55 85 85" stroke="#FF4500" stroke-width="3" fill="transparent"/>
  
  <!-- Lime segments -->
  <path d="M60 10 Q40 20 35 35" stroke="#32CD32" stroke-width="3" fill="transparent"/>
  <path d="M35 35 Q30 55 35 85" stroke="#32CD32" stroke-width="3" fill="transparent"/>
  
  <!-- Strawberry segments -->
  <path d="M85 85 Q75 100 60 110" stroke="#FF1493" stroke-width="3" fill="transparent"/>
  <path d="M35 85 Q45 100 60 110" stroke="#FF1493" stroke-width="3" fill="transparent"/>
  
  <!-- Sugar coating (dots) -->
  <circle cx="60" cy="10" r="3" fill="white"/>
  <circle cx="85" cy="35" r="3" fill="white"/>
  <circle cx="95" cy="60" r="3" fill="white"/>
  <circle cx="85" cy="85" r="3" fill="white"/>
  <circle cx="60" cy="110" r="3" fill="white"/>
  <circle cx="35" cy="85" r="3" fill="white"/>
  <circle cx="25" cy="60" r="3" fill="white"/>
  <circle cx="35" cy="35" r="3" fill="white"/>
</svg>