<?xml version="1.0" encoding="UTF-8"?>
<svg id="Layer_2" data-name="Layer 2" xmlns="http://www.w3.org/2000/svg" viewBox="0 0 841.89 595.28">
  <defs>
    <style>
      .cls-1 {
        fill: #fff;
      }

      .cls-2 {
        fill: #f8c471;
      }

      .cls-3 {
        fill: #154360;
      }

      .cls-4 {
        fill: #5dade2;
      }

      .cls-5 {
        fill: #f7dc6f;
      }

      .cls-6 {
        fill: #f8c472;
      }

      .cls-7 {
        fill: #dc7633;
      }

      .cls-8 {
        fill: #e74c3c;
      }

      .cls-9 {
        fill: #a569bd;
      }

      .cls-10 {
        fill: #48c9b0;
      }

      .cls-11 {
        fill: #f1948a;
      }

      .cls-12 {
        fill: #76d7c4;
      }
    </style>
  </defs>
  <g id="Layer_1-2" data-name="Layer 1">
    <path class="cls-3" d="M165.47,317.67c0-26.15,18.46-42.92,47.08-42.92h7.38c22.77,0,34.92,11.54,38.46,33.69h-20.15c-1.85-8.31-5.54-13.23-15.69-13.23-7.69,0-12.77,5.54-12.77,14.15s4.46,13.85,13.08,14.77l28.92,3.38c21.23,2.46,30.77,13.23,30.77,32.31,0,26.15-20.31,43.54-46.46,43.54h-7.69c-22.46,0-35.38-12.15-38.92-34.92h20.77c1.85,9.54,7.08,14.77,18,14.77,7.38,0,13.23-5.23,13.23-15.08s-4.77-14.15-14.15-15.08l-27.69-3.08c-19.69-2.15-32.31-12.46-32.31-32.31Z"/>
    <path class="cls-3" d="M302.8,292.13h65.54v20.15h-45.38v21.23h34.92v19.54h-34.92v23.08h46.15v20.46h-66.31v-104.46Z"/>
    <path class="cls-3" d="M388.6,292.13h44.46c23.69,0,40.46,17.23,40.46,40.15v7.69c0,23.08-17.23,40.31-41.08,40.31h-23.69v16.31h-20.15v-104.46ZM432.13,312.29h-23.38v28h23.38c11.54,0,19.54-7.69,19.54-19.23v-7.69c0-11.85-7.69-20.46-19.54-20.46v19.38Z"/>
    <path class="cls-3" d="M495.18,292.13h65.54v20.15h-45.38v21.23h34.92v19.54h-34.92v23.08h46.15v20.46h-66.31v-104.46Z"/>
    <path class="cls-3" d="M585.51,292.13h44.77c24.92,0,41.38,16.31,41.38,39.54v8.62c0,23.38-16.62,39.54-41.38,39.54h-24.62v15.77h-20.15v-103.46ZM629.36,312.29h-23.69v27.69h23.69c11.54,0,19.54-7.69,19.54-19.23v-8.62c0-11.85-7.69-19.23-19.54-19.23v19.38Z"/>
    <path class="cls-3" d="M164.7,408.52h17.69l15.69,49.54,14.77-49.54h15.69l-24.15,70.77h-15.54l-24.15-70.77Z"/>
    <path class="cls-3" d="M238.36,408.52h48.62v13.08h-36.31v17.69h25.54v12.77h-25.54v14.15h37.08v13.08h-49.38v-70.77Z"/>
    <path class="cls-3" d="M319.72,408.52c15.08,0,25.23,8.31,25.23,24.62v21.85c0,16.31-10.15,24.31-25.23,24.31h-21.23v-70.77h21.23ZM298.8,421.29v46.15h20.62c7.08,0,12.46-4.15,12.46-11.85v-22.46c0-7.69-5.38-11.85-12.46-11.85h-20.62Z"/>
    <path class="cls-3" d="M380.29,408.52h48.62v13.08h-36.31v17.69h25.54v12.77h-25.54v14.15h37.08v13.08h-49.38v-70.77Z"/>
    <path class="cls-3" d="M462.6,408.52c14.77,0,24.62,8.31,24.62,23.08v2.15c0,11.85-6,19.23-16.31,21.85l18.77,23.69h-16l-17.08-21.85h-11.54v21.85h-12.31v-70.77h29.85ZM444.29,421.29v23.08h16.92c7.08,0,12.15-4.46,12.15-11.54v-2.15c0-7.08-5.08-9.38-12.15-9.38h-16.92Z"/>
    <path class="cls-3" d="M521.97,408.52h48.62v13.08h-36.31v17.69h25.54v12.77h-25.54v14.15h37.08v13.08h-49.38v-70.77Z"/>
    <path class="cls-3" d="M604.28,408.52c14.77,0,24.62,8.31,24.62,23.08v2.15c0,11.85-6,19.23-16.31,21.85l18.77,23.69h-16l-17.08-21.85h-11.54v21.85h-12.31v-70.77h29.85ZM585.98,421.29v23.08h16.92c7.08,0,12.15-4.46,12.15-11.54v-2.15c0-7.08-5.08-9.38-12.15-9.38h-16.92Z"/>
    <path class="cls-3" d="M653.04,408.52h12.31v70.77h-12.31v-70.77Z"/>
    <circle class="cls-4" cx="217.72" cy="176.65" r="18.46"/>
    <circle class="cls-2" cx="258.96" cy="180.8" r="16.31"/>
    <circle class="cls-5" cx="302.8" cy="176.65" r="18.46"/>
    <circle class="cls-6" cx="344.35" cy="180.8" r="14.15"/>
    <circle class="cls-7" cx="376.13" cy="176.65" r="16.31"/>
    <circle class="cls-8" cx="403.36" cy="180.8" r="14.15"/>
    <circle class="cls-9" cx="432.13" cy="176.65" r="16.31"/>
    <circle class="cls-10" cx="459.36" cy="180.8" r="14.15"/>
    <circle class="cls-11" cx="488.13" cy="176.65" r="16.31"/>
    <circle class="cls-12" cx="519.21" cy="180.8" r="14.15"/>
    <circle class="cls-4" cx="551.9" cy="176.65" r="16.31"/>
    <circle class="cls-2" cx="583.9" cy="180.8" r="14.15"/>
    <circle class="cls-5" cx="612.67" cy="176.65" r="16.31"/>
    <circle class="cls-6" cx="644.67" cy="180.8" r="14.15"/>
    <path class="cls-1" d="M217.72,186.49c-5.38,0-9.77-4.38-9.77-9.77s4.38-9.77,9.77-9.77,9.77,4.38,9.77,9.77-4.38,9.77-9.77,9.77Z"/>
    <path class="cls-1" d="M258.96,189.34c-4.77,0-8.62-3.85-8.62-8.62s3.85-8.62,8.62-8.62,8.62,3.85,8.62,8.62-3.85,8.62-8.62,8.62Z"/>
    <path class="cls-1" d="M302.8,186.49c-5.38,0-9.77-4.38-9.77-9.77s4.38-9.77,9.77-9.77,9.77,4.38,9.77,9.77-4.38,9.77-9.77,9.77Z"/>
    <path class="cls-1" d="M344.35,188.03c-4,0-7.23-3.23-7.23-7.23s3.23-7.23,7.23-7.23,7.23,3.23,7.23,7.23-3.23,7.23-7.23,7.23Z"/>
    <path class="cls-1" d="M376.13,186.8c-4.77,0-8.62-3.85-8.62-8.62s3.85-8.62,8.62-8.62,8.62,3.85,8.62,8.62-3.85,8.62-8.62,8.62Z"/>
    <path class="cls-1" d="M403.36,188.03c-4,0-7.23-3.23-7.23-7.23s3.23-7.23,7.23-7.23,7.23,3.23,7.23,7.23-3.23,7.23-7.23,7.23Z"/>
    <path class="cls-1" d="M432.13,186.8c-4.77,0-8.62-3.85-8.62-8.62s3.85-8.62,8.62-8.62,8.62,3.85,8.62,8.62-3.85,8.62-8.62,8.62Z"/>
    <path class="cls-1" d="M459.36,188.03c-4,0-7.23-3.23-7.23-7.23s3.23-7.23,7.23-7.23,7.23,3.23,7.23,7.23-3.23,7.23-7.23,7.23Z"/>
    <path class="cls-1" d="M488.13,186.8c-4.77,0-8.62-3.85-8.62-8.62s3.85-8.62,8.62-8.62,8.62,3.85,8.62,8.62-3.85,8.62-8.62,8.62Z"/>
    <path class="cls-1" d="M519.21,188.03c-4,0-7.23-3.23-7.23-7.23s3.23-7.23,7.23-7.23,7.23,3.23,7.23,7.23-3.23,7.23-7.23,7.23Z"/>
    <path class="cls-1" d="M551.9,186.8c-4.77,0-8.62-3.85-8.62-8.62s3.85-8.62,8.62-8.62,8.62,3.85,8.62,8.62-3.85,8.62-8.62,8.62Z"/>
    <path class="cls-1" d="M583.9,188.03c-4,0-7.23-3.23-7.23-7.23s3.23-7.23,7.23-7.23,7.23,3.23,7.23,7.23-3.23,7.23-7.23,7.23Z"/>
    <path class="cls-1" d="M612.67,186.8c-4.77,0-8.62-3.85-8.62-8.62s3.85-8.62,8.62-8.62,8.62,3.85,8.62,8.62-3.85,8.62-8.62,8.62Z"/>
    <path class="cls-1" d="M644.67,188.03c-4,0-7.23-3.23-7.23-7.23s3.23-7.23,7.23-7.23,7.23,3.23,7.23,7.23-3.23,7.23-7.23,7.23Z"/>
  </g>
</svg>